<?xml version="1.0" encoding="utf-8"?>
<!-- Generator: Adobe Illustrator 18.0.0, SVG Export Plug-In . SVG Version: 6.00 Build 0)  -->
<!DOCTYPE svg PUBLIC "-//W3C//DTD SVG 1.1//EN" "http://www.w3.org/Graphics/SVG/1.1/DTD/svg11.dtd">
<svg version="1.1" id="Ebene_1" xmlns="http://www.w3.org/2000/svg" xmlns:xlink="http://www.w3.org/1999/xlink" x="0px" y="0px"
	 viewBox="0 0 595.3 841.9" enable-background="new 0 0 595.3 841.9" xml:space="preserve">
<g>
	<path fill-rule="evenodd" clip-rule="evenodd" d="M297,389.2c-20.5,0-38.6,10.9-49.3,27.5l-5.4,10.5l2.6,5.8
		c8.6,14.2,28.7,24.2,52.2,24.2s43.6-10,52.2-24.2l2.6-5.8l-5.4-10.5C335.6,400.1,317.5,389.2,297,389.2L297,389.2z M277.6,353.9
		c6.3,0.1,10.9,4.5,16.2,6l3,0.4l0.1,0l0.1,0l3-0.4c5.3-1.5,9.9-6,16.2-6c2.5,0,5.3,0.7,8.5,2.5c19.9,11.6,32.5,40.9,35.2,66.2
		c-2.1,21.1-13,61.6-54.5,66l-8.4,0.4v0l0,0l0,0v0l-0.1,0l-0.1,0v0l0,0l0,0v0l-8.4-0.4c-41.4-4.5-52.4-45-54.5-66
		c2.7-25.3,15.3-54.6,35.2-66.2C272.4,354.5,275.1,353.9,277.6,353.9L277.6,353.9z"/>
</g>
</svg>
