<?xml version="1.0" encoding="utf-8"?>
<!-- Generator: Adobe Illustrator 18.0.0, SVG Export Plug-In . SVG Version: 6.00 Build 0)  -->
<!DOCTYPE svg PUBLIC "-//W3C//DTD SVG 1.1//EN" "http://www.w3.org/Graphics/SVG/1.1/DTD/svg11.dtd">
<svg version="1.1" id="Ebene_1" xmlns="http://www.w3.org/2000/svg" xmlns:xlink="http://www.w3.org/1999/xlink" x="0px" y="0px"
	 viewBox="0 0 595.3 841.9" enable-background="new 0 0 595.3 841.9" xml:space="preserve">
<g>
	<path fill-rule="evenodd" clip-rule="evenodd" d="M256.7,421.1L256.7,421.1L256.7,421.1l3.2,1.4c4.7,1,14.1,1.7,25.6,2l11.8,0.2
		l11.8-0.2c11.6-0.3,21-1.1,25.6-2l3.2-1.4h0c0,0,0,0,0,0h0l-8.2,0.8c-4.6,0.3-9.7,0.6-15.3,0.8l-16,0.2v0l-0.7,0l-0.4,0l-0.4,0
		l-0.7,0v0l-16-0.2c-5.6-0.2-10.7-0.4-15.3-0.8L256.7,421.1L256.7,421.1L256.7,421.1L256.7,421.1z M283,396.9
		c3.8,0.2,8.1,2.4,11.4,5.7c0.8,0.7,1.5,0.9,3.1,0.9c1.6,0,1.8-0.5,2.9-0.9c3.3-3.4,7.6-5.5,11.4-5.7c3.8-0.2,7,2.9,11.3,4.6
		s6.6,3.5,14.4,5.4c7.8,1.8,21.5,6.7,32.3,5.7l-0.1,0.3c-2.8,5.3-4.3,6.8-8.4,9.9c-18.8,9.2-37.3,20.6-56.2,23.1l-6.5,0.4v0
		l-0.6,0.1l-0.5,0l-0.5,0l-0.6-0.1v0l-6.5-0.4c-18.9-2.6-37.4-13.9-56.2-23.1c-4.1-3.1-5.6-4.6-8.4-9.9l-0.1-0.3
		c10.8,1,24.5-3.9,32.3-5.7c7.8-1.8,10.1-3.7,14.4-5.4S279.2,396.7,283,396.9L283,396.9z"/>
</g>
</svg>
